<svg width="512" height="512" viewBox="0 0 512 512" fill="none" xmlns="http://www.w3.org/2000/svg">
  <rect width="512" height="512" rx="128" fill="#3B82F6"/>
  <path d="M181.344 308.032C174.784 308.032 168.48 307.136 162.432 305.344C156.48 303.456 151.296 300.896 146.88 297.664L154.272 282.592C158.4 285.44 162.912 287.664 167.808 289.264C172.8 290.768 177.792 291.52 182.784 291.52C188.928 291.52 193.536 290.528 196.608 288.544C199.776 286.56 201.36 283.904 201.36 280.576C201.36 277.92 200.32 275.84 198.24 274.336C196.16 272.736 192.8 271.456 188.16 270.496L175.968 268.032C169.248 266.624 163.872 264.064 159.84 260.352C155.808 256.544 153.792 251.6 153.792 245.52C153.792 240.624 155.04 236.304 157.536 232.56C160.128 228.816 163.776 225.888 168.48 223.776C173.184 221.664 178.656 220.608 184.896 220.608C190.272 220.608 195.456 221.376 200.448 222.912C205.44 224.352 209.76 226.432 213.408 229.152L206.736 244.224C203.28 241.888 199.584 240.128 195.648 238.944C191.712 237.664 187.872 237.024 184.128 237.024C178.176 237.024 173.664 238.064 170.592 240.144C167.616 242.224 166.128 244.992 166.128 248.448C166.128 251.2 167.168 253.376 169.248 254.976C171.424 256.48 174.784 257.76 179.328 258.816L191.52 261.28C198.432 262.688 203.904 265.248 207.936 268.96C212.064 272.672 214.128 277.568 214.128 283.648C214.128 288.544 212.832 292.864 210.24 296.608C207.648 300.352 203.904 303.28 199.008 305.392C194.208 307.152 188.384 308.032 181.344 308.032Z" fill="white"/>
  <path d="M330.656 308.032C324.096 308.032 317.792 307.136 311.744 305.344C305.792 303.456 300.608 300.896 296.192 297.664L303.584 282.592C307.712 285.44 312.224 287.664 317.12 289.264C322.112 290.768 327.104 291.52 332.096 291.52C338.24 291.52 342.848 290.528 345.92 288.544C349.088 286.56 350.672 283.904 350.672 280.576C350.672 277.92 349.632 275.84 347.552 274.336C345.472 272.736 342.112 271.456 337.472 270.496L325.28 268.032C318.56 266.624 313.184 264.064 309.152 260.352C305.12 256.544 303.104 251.6 303.104 245.52C303.104 240.624 304.352 236.304 306.848 232.56C309.44 228.816 313.088 225.888 317.792 223.776C322.496 221.664 327.968 220.608 334.208 220.608C339.584 220.608 344.768 221.376 349.76 222.912C354.752 224.352 359.072 226.432 362.72 229.152L356.048 244.224C352.592 241.888 348.896 240.128 344.96 238.944C341.024 237.664 337.184 237.024 333.44 237.024C327.488 237.024 322.976 238.064 319.904 240.144C316.928 242.224 315.44 244.992 315.44 248.448C315.44 251.2 316.48 253.376 318.56 254.976C320.736 256.48 324.096 257.76 328.64 258.816L340.832 261.28C347.744 262.688 353.216 265.248 357.248 268.96C361.376 272.672 363.44 277.568 363.44 283.648C363.44 288.544 362.144 292.864 359.552 296.608C356.96 300.352 353.216 303.28 348.32 305.392C343.52 307.152 337.696 308.032 330.656 308.032Z" fill="white"/>
</svg>
